<?xml version="1.0" standalone="no"?>
<!DOCTYPE svg PUBLIC "-//W3C//DTD SVG 20010904//EN"
 "http://www.w3.org/TR/2001/REC-SVG-20010904/DTD/svg10.dtd">
<svg version="1.0" xmlns="http://www.w3.org/2000/svg"
 width="700.000000pt" height="700.000000pt" viewBox="0 0 700.000000 700.000000"
 preserveAspectRatio="xMidYMid meet">
<metadata>
Created by potrace 1.11, written by Peter Selinger 2001-2013
</metadata>
<g transform="translate(0.000000,700.000000) scale(0.100000,-0.100000)"
fill="#000000" stroke="none">
<path d="M0 3500 l0 -3500 3500 0 3500 0 0 3500 0 3500 -3500 0 -3500 0 0
-3500z m3636 2510 c67 -32 114 -81 149 -155 18 -37 19 -80 26 -660 4 -341 9
-948 11 -1350 l3 -730 -25 -50 c-47 -96 -134 -155 -241 -163 -85 -6 -148 15
-211 68 -68 59 -97 127 -103 242 -3 51 -10 649 -16 1329 -13 1403 -18 1304 67
1398 68 75 118 98 223 100 40 1 69 -6 117 -29z m-1156 -908 c57 -25 112 -80
142 -140 18 -37 23 -63 23 -127 -1 -105 -30 -163 -117 -235 -170 -139 -205
-171 -274 -250 -200 -227 -338 -507 -405 -820 -20 -90 -23 -135 -23 -315 0
-235 14 -324 79 -519 185 -551 629 -964 1190 -1105 133 -34 193 -42 345 -48
665 -26 1272 335 1575 938 84 165 146 390 166 595 34 346 -82 788 -289 1099
-105 159 -223 282 -389 408 -101 77 -143 151 -143 251 0 85 26 152 80 206 68
68 109 85 210 85 105 -1 140 -17 290 -138 517 -416 834 -1097 833 -1792 -1
-583 -240 -1152 -663 -1575 -347 -347 -781 -567 -1280 -647 -150 -24 -495 -24
-650 0 -497 77 -929 295 -1281 646 -565 566 -791 1363 -603 2130 81 330 242
655 455 918 149 184 405 407 512 445 63 23 151 18 217 -10z"/>
</g>
</svg>
