<?xml version="1.0" encoding="UTF-8"?>
<!DOCTYPE svg PUBLIC "-//W3C//DTD SVG 1.1//EN" "http://www.w3.org/Graphics/SVG/1.1/DTD/svg11.dtd">
<svg version="1.1" xmlns="http://www.w3.org/2000/svg" xmlns:xlink="http://www.w3.org/1999/xlink" viewBox="0, 0, 1000, 1000">
  <g id="background2">
    <path d="M200,0 L800,0 C910.457,0 1000,89.543 1000,200 L1000,800 C1000,910.457 910.457,1000 800,1000 L200,1000 C89.543,1000 -0,910.457 -0,800 L-0,200 C-0,89.543 89.543,0 200,0 z" fill="#383838"/>
  </g>
  <g id="symbol">
    <g>
      <path d="M664.075,308.513 C740.208,361.353 779.997,448.176 783.357,539.41 C783.357,695.628 656.718,822.268 500.5,822.268 C344.282,822.268 217.643,695.628 217.643,539.41 C218.343,449.174 262.894,361.14 336.925,308.926" fill-opacity="0" stroke="#00CDCF" stroke-width="84" stroke-linecap="round"/>
      <path d="M501.723,178.732 L505.391,544.334" fill-opacity="0" stroke="#00CDCF" stroke-width="84" stroke-linecap="round"/>
    </g>
  </g>
</svg>
