<?xml version="1.0" encoding="UTF-8"?>
<!DOCTYPE svg PUBLIC "-//W3C//DTD SVG 1.1//EN" "http://www.w3.org/Graphics/SVG/1.1/DTD/svg11.dtd">
<svg version="1.1" xmlns="http://www.w3.org/2000/svg" xmlns:xlink="http://www.w3.org/1999/xlink" x="0" y="0" width="100" height="100" viewBox="0, 0, 1000, 1000">
  <g id="背景1" display="none">
    <path d="M-0,0 L1000,0 L1000,1000 L-0,1000 L-0,0 z" fill="#515151"/>
  </g>
  <g id="背景2">
    <g>
      <path d="M200.5,0.5 L800.5,0.5 C910.957,0.5 1000.5,90.043 1000.5,200.5 L1000.5,800.5 C1000.5,910.957 910.957,1000.5 800.5,1000.5 L200.5,1000.5 C90.043,1000.5 0.5,910.957 0.5,800.5 L0.5,200.5 C0.5,90.043 90.043,0.5 200.5,0.5 z" fill="#383838"/>
      <path d="M200.5,0.5 L800.5,0.5 C910.957,0.5 1000.5,90.043 1000.5,200.5 L1000.5,800.5 C1000.5,910.957 910.957,1000.5 800.5,1000.5 L200.5,1000.5 C90.043,1000.5 0.5,910.957 0.5,800.5 L0.5,200.5 C0.5,90.043 90.043,0.5 200.5,0.5 z" fill-opacity="0" stroke="#000000" stroke-width="1"/>
    </g>
  </g>
  <g id="レイヤー_1_のコピー">
    <g>
      <path d="M664.075,308.513 C740.208,361.353 779.997,448.176 783.357,539.41 C783.357,695.628 656.718,822.268 500.5,822.268 C344.282,822.268 217.643,695.628 217.643,539.41 C218.343,449.174 262.894,361.14 336.925,308.926" fill-opacity="0" stroke="#00CDCF" stroke-width="84" stroke-linecap="round"/>
      <path d="M501.723,178.732 L505.391,544.334" fill-opacity="0" stroke="#00CDCF" stroke-width="84" stroke-linecap="round"/>
    </g>
  </g>
</svg>
